<svg width="140" height="34" viewBox="0 0 140 34" fill="none" xmlns="http://www.w3.org/2000/svg">
<g clip-path="url(#clip0_2918_10050)">
<mask id="mask0_2918_10050" style="mask-type:luminance" maskUnits="userSpaceOnUse" x="0" y="0" width="140" height="34">
<path d="M140 0H0V33.2787H140V0Z" fill="white"/>
</mask>
<g mask="url(#mask0_2918_10050)">
<path d="M14.3787 29.9738C13.824 30.5341 13.1899 31.0097 12.4967 31.3852C11.4752 31.9187 10.3319 32.1759 9.18033 32.1311C7.67028 32.187 6.17273 31.8384 4.84262 31.1213C3.69118 30.4842 2.7139 29.5739 1.99672 28.4705C1.25548 27.2745 0.74192 25.9517 0.481968 24.5689C0.157375 23.0605 -0.00420842 21.5216 8.58521e-07 19.9787C-0.049451 18.2272 0.167224 16.4783 0.642624 14.7918C1.02096 13.4831 1.67432 12.2703 2.55902 11.2344C3.35932 10.3343 4.35687 9.63125 5.47377 9.18033C6.67835 8.70231 7.96479 8.46451 9.26066 8.48033C10.2097 8.46119 11.1533 8.62885 12.0377 8.97377C12.6158 9.19843 13.1572 9.50783 13.6443 9.8918V6.97705H11.7164C11.659 6.3918 11.6246 5.82951 11.5902 5.24426C11.5557 4.65902 11.5902 4.09672 11.5902 3.47705C11.5902 2.85738 11.5902 2.32951 11.5902 1.74426C11.5902 1.15902 11.659 0.596721 11.7164 0H23.123V24.5689H25.0508C25.1082 25.1541 25.1426 25.7164 25.1885 26.3131C25.2344 26.9098 25.1885 27.4607 25.1885 28.0459C25.1885 28.6311 25.1885 29.1934 25.1885 29.7902C25.1885 30.3869 25.1082 30.9377 25.0508 31.5344H14.6082L14.3787 29.9738ZM11.6246 25.0967C11.9751 25.0972 12.3181 24.9953 12.6116 24.8037C12.9052 24.6121 13.1364 24.3391 13.2771 24.018C13.7325 22.8421 13.9282 21.5816 13.8508 20.323C13.9406 19.0413 13.7447 17.7557 13.2771 16.559C13.1389 16.2362 12.9082 15.9615 12.6141 15.7695C12.3201 15.5775 11.9758 15.4769 11.6246 15.4803C11.2843 15.4806 10.9521 15.5837 10.6715 15.7763C10.3909 15.9688 10.1751 16.2416 10.0525 16.559C9.60439 17.7605 9.41664 19.0435 9.50164 20.323C9.41943 21.5798 9.60725 22.8398 10.0525 24.018C10.1778 24.3336 10.3942 24.6047 10.6742 24.7968C10.9542 24.989 11.2851 25.0934 11.6246 25.0967Z" fill="white"/>
<path d="M26.7492 20.2311C26.7458 18.6256 27.0135 17.0311 27.541 15.5147C28.0106 14.1193 28.7604 12.8346 29.7443 11.7393C30.7851 10.6402 32.0597 9.78919 33.4738 9.24915C35.1687 8.61902 36.9676 8.31532 38.7754 8.35407C40.5871 8.31415 42.3899 8.61786 44.0885 9.24915C45.507 9.80012 46.7906 10.6493 47.8525 11.7393C48.8844 12.8148 49.6678 14.1036 50.1475 15.5147C50.6463 17.0367 50.8943 18.6296 50.882 20.2311C50.8964 21.8366 50.6483 23.4336 50.1475 24.959C49.6732 26.3693 48.889 27.6554 47.8525 28.7229C46.7943 29.8201 45.5099 30.6738 44.0885 31.2246C42.3907 31.8598 40.5878 32.1674 38.7754 32.1311C36.9668 32.1665 35.1679 31.8589 33.4738 31.2246C32.0373 30.6738 30.7431 29.8071 29.6869 28.6885C28.7029 27.6206 27.9697 26.3464 27.541 24.959C27.0152 23.4382 26.7476 21.8402 26.7492 20.2311ZM38.741 25.3951C39.1155 25.391 39.4813 25.2812 39.796 25.0781C40.1108 24.8751 40.3616 24.5871 40.5197 24.2475C41.0383 22.9795 41.2582 21.6092 41.1623 20.2426C41.2607 18.8908 41.0406 17.5348 40.5197 16.2836C40.3639 15.9423 40.1136 15.6528 39.7983 15.4494C39.4831 15.246 39.1161 15.1373 38.741 15.136C38.3727 15.1418 38.0138 15.2529 37.7067 15.4563C37.3996 15.6597 37.1572 15.9468 37.0082 16.2836C36.4814 17.5331 36.261 18.8906 36.3656 20.2426C36.2717 21.6091 36.4915 22.979 37.0082 24.2475C37.1572 24.5843 37.3996 24.8714 37.7067 25.0748C38.0138 25.2781 38.3727 25.3893 38.741 25.3951Z" fill="white"/>
<path d="M53.1426 24.5459V6.97705H51.2147C51.1574 6.3918 51.1229 5.82951 51.077 5.24426C51.0311 4.65902 51.077 4.09672 51.077 3.5C51.077 2.90328 51.077 2.35246 51.077 1.75574C51.077 1.15901 51.1574 0.608195 51.2147 0.0229492H62.6213V24.5803H64.5492C64.5492 25.177 64.641 25.7279 64.6754 26.3246C64.7098 26.9213 64.6754 27.4721 64.6754 28.0689C64.6754 28.6656 64.6754 29.2164 64.6754 29.8016C64.6754 30.3869 64.6066 30.9492 64.5492 31.5459H51.2262C51.2262 30.9607 51.1344 30.3984 51.1 29.8016C51.0656 29.2049 51.1 28.6541 51.1 28.0689C51.1 27.4836 51.1 26.9213 51.1 26.3246C51.1 25.7279 51.1688 25.177 51.2262 24.5803H53.1426V24.5459Z" fill="white"/>
<path d="M79.4787 29.9394C79.2263 30.1574 78.9279 30.3984 78.5836 30.6509C78.1946 30.9277 77.7795 31.166 77.3443 31.3623C76.8133 31.6008 76.2597 31.7853 75.6918 31.9132C74.9985 32.0642 74.2898 32.1335 73.5804 32.1197C72.6281 32.1314 71.6798 31.9959 70.7689 31.7181C69.9208 31.4642 69.1378 31.0297 68.4738 30.4443C67.7827 29.833 67.241 29.0714 66.8902 28.2181C66.4763 27.1826 66.2772 26.0738 66.3049 24.9591C66.2508 23.6838 66.557 22.4191 67.1885 21.3099C67.7798 20.3533 68.6052 19.5634 69.5869 19.0148C70.7283 18.3811 71.9644 17.9355 73.2476 17.6951C74.7618 17.3801 76.2952 17.1654 77.8377 17.0525L78.7902 16.9607V16.6623C78.813 16.4006 78.7752 16.1371 78.6797 15.8923C78.5841 15.6475 78.4335 15.428 78.2394 15.2509C77.6859 14.8903 77.0264 14.7285 76.3689 14.7919C75.1462 14.8 73.9302 14.9737 72.7541 15.3082C71.1941 15.7719 69.6616 16.3236 68.164 16.9607V10.5345C69.5626 9.93622 71.0003 9.43396 72.4672 9.03119C74.3079 8.5636 76.2028 8.34362 78.1017 8.3771C79.1155 8.38449 80.1277 8.46117 81.1312 8.6066C82.2775 8.75911 83.386 9.12085 84.4017 9.67382C85.4636 10.259 86.3598 11.1039 87.0066 12.1296C87.7909 13.4645 88.1622 15.0018 88.0738 16.5476V24.5804H90.0017C90.0017 25.1656 90.0935 25.7279 90.1279 26.3132C90.1623 26.8984 90.1279 27.4607 90.1279 28.0574C90.1279 28.6541 90.1279 29.205 90.1279 29.8017C90.1279 30.3984 90.059 30.9492 90.0017 31.5345H79.6738L79.4787 29.9394ZM78.9508 21.9066L77.941 22.0328C77.1439 22.0611 76.3813 22.3653 75.7836 22.8935C75.4211 23.3013 75.221 23.8281 75.2213 24.3738C75.2144 24.7939 75.3613 25.2021 75.6345 25.5214C75.7975 25.6835 75.9937 25.8085 76.2096 25.8877C76.4255 25.967 76.656 25.9986 76.8853 25.9804C77.1601 26.022 77.4408 25.9992 77.7052 25.9135C77.9696 25.8279 78.2105 25.6819 78.4087 25.487C78.6069 25.2921 78.757 25.0538 78.8471 24.7909C78.9372 24.5279 78.9649 24.2476 78.9279 23.9722V21.8951L78.9508 21.9066Z" fill="white"/>
<path d="M104.885 29.9738C104.324 30.5316 103.687 31.0068 102.992 31.3852C101.984 31.912 100.858 32.1689 99.7213 32.1311C98.2112 32.187 96.7137 31.8384 95.3836 31.1213C94.2359 30.4789 93.2598 29.5697 92.5377 28.4705C91.789 27.2858 91.2604 25.9757 90.977 24.6033C90.658 23.094 90.4965 21.5557 90.4951 20.0131C90.4652 18.2649 90.6894 16.5215 91.1606 14.8377C91.5238 13.5311 92.1703 12.3205 93.0541 11.2918C93.847 10.3695 94.8454 9.64629 95.9688 9.18033C97.1734 8.70231 98.4598 8.46451 99.7557 8.48033C100.705 8.45436 101.65 8.62226 102.533 8.97377C103.113 9.20169 103.658 9.51079 104.151 9.8918V6.97705H102.223C102.223 6.3918 102.131 5.82951 102.085 5.24426C102.039 4.65902 102.085 4.09672 102.085 3.5C102.085 2.90328 102.085 2.35246 102.085 1.75574C102.085 1.15902 102.131 0.585246 102.223 0H113.607V24.5574H115.488C115.488 25.1541 115.58 25.7049 115.626 26.3016C115.672 26.8984 115.626 27.4492 115.626 28.0459C115.626 28.6426 115.626 29.1934 115.626 29.7787C115.626 30.3639 115.546 30.9262 115.488 31.523H105.08L104.885 29.9738ZM102.131 25.0967C102.481 25.0943 102.823 24.9913 103.116 24.8001C103.409 24.6088 103.641 24.3373 103.784 24.018C104.24 22.8384 104.436 21.5739 104.357 20.3115C104.446 19.0336 104.25 17.7519 103.784 16.559C103.645 16.2362 103.415 15.9615 103.121 15.7695C102.827 15.5775 102.482 15.4769 102.131 15.4803C101.79 15.4814 101.456 15.5848 101.174 15.777C100.892 15.9693 100.674 16.2416 100.548 16.559C100.1 17.7567 99.9126 19.0358 99.9967 20.3115C99.9135 21.5722 100.101 22.836 100.548 24.018C100.677 24.3328 100.897 24.6026 101.178 24.7943C101.459 24.986 101.791 25.0911 102.131 25.0967Z" fill="white"/>
<path d="M115.971 20.2312C115.952 18.6283 116.205 17.0338 116.716 15.5148C117.186 14.1221 117.932 12.8381 118.908 11.7394C119.955 10.6425 121.233 9.79191 122.649 9.24922C126.087 8.0556 129.826 8.0556 133.264 9.24922C134.682 9.80019 135.966 10.6494 137.028 11.7394C138.06 12.8149 138.843 14.1036 139.323 15.5148C139.822 17.0367 140.07 18.6296 140.057 20.2312C140.072 21.8366 139.824 23.4336 139.323 24.9591C138.849 26.3694 138.064 27.6555 137.028 28.723C135.97 29.8202 134.685 30.6738 133.264 31.2246C129.829 32.4337 126.084 32.4337 122.649 31.2246C121.23 30.6658 119.953 29.7997 118.908 28.6886C117.906 27.6128 117.158 26.3268 116.716 24.9246C116.21 23.4121 115.958 21.8261 115.971 20.2312ZM127.974 25.3951C128.348 25.3884 128.712 25.2775 129.027 25.0747C129.341 24.872 129.592 24.5855 129.752 24.2476C130.271 22.9796 130.491 21.6093 130.395 20.2427C130.494 18.8909 130.273 17.5349 129.752 16.2836C129.593 15.9449 129.342 15.6577 129.028 15.4548C128.713 15.2519 128.348 15.1415 127.974 15.1361C127.606 15.1419 127.247 15.253 126.94 15.4564C126.632 15.6597 126.39 15.9468 126.241 16.2836C125.714 17.5332 125.494 18.8906 125.598 20.2427C125.499 21.6094 125.719 22.9806 126.241 24.2476C126.39 24.5844 126.632 24.8715 126.94 25.0748C127.247 25.2782 127.606 25.3893 127.974 25.3951Z" fill="white"/>
</g>
</g>
<defs>
<clipPath id="clip0_2918_10050">
<rect width="140" height="33.2787" fill="white"/>
</clipPath>
</defs>
</svg>
